<svg id="Layer_1" data-name="Layer 1" xmlns="http://www.w3.org/2000/svg" xmlns:xlink="http://www.w3.org/1999/xlink" viewBox="0 0 374 374"><defs><style>.cls-1{fill:url(#linear-gradient);}</style><linearGradient id="linear-gradient" x1="491.18" y1="272.98" x2="745.3" y2="554.4" gradientUnits="userSpaceOnUse"><stop offset="0" stop-color="#ebb100"/><stop offset="0.8" stop-color="#f66bc2"/></linearGradient></defs><path class="cls-1" d="M614,222c-103.28,0-187,83.72-187,187a186.71,186.71,0,0,0,73.78,148.83q6.41,4.88,13.22,9.2a187.08,187.08,0,0,0,200,0q6.81-4.32,13.22-9.2A186.71,186.71,0,0,0,801,409C801,305.72,717.28,222,614,222Zm0,360a172.19,172.19,0,0,1-100-31.82V539.61a91.62,91.62,0,0,1,84.3-91.32q3.62-.29,7.31-.29h16.78q4.07,0,8,.35A91.61,91.61,0,0,1,714,539.61v10.57A172.19,172.19,0,0,1,614,582Zm.5-146A63.5,63.5,0,1,1,678,372.5,63.5,63.5,0,0,1,614.5,436ZM727.22,539.81v-1.94A100.91,100.91,0,0,0,652,440.31a77.51,77.51,0,1,0-75.38-.19,100.93,100.93,0,0,0-75.87,97.75v1.94a173,173,0,1,1,226.44,0Z" transform="translate(-427 -222)"/></svg>