<svg id="Layer_1" data-name="Layer 1" xmlns="http://www.w3.org/2000/svg" viewBox="0 0 422.07 443.3"><defs><style>.cls-1{fill:#1e212b;}.cls-2{fill:#feae11;}.cls-3{fill:#fff;}</style></defs><path class="cls-1" d="M1030.5,385.18h0a2.85,2.85,0,0,0-1.07-.55A380.73,380.73,0,0,0,679.22,384a6,6,0,0,0-1.73.89h0c-1.65,1.26-2.42,3.44-1.77,7.05,9.92,65.38,25.51,131,57.66,189,7.22,12.72,15.57,25.13,23.51,37.42.61.44.92,1.57,1.52,2.23l.26.12a400.53,400.53,0,0,0,27.85,35.73l0,0,3.08,3.62h0c3.59,4.54,7.76,8.56,11.66,12.84,11.58,11.8,23.29,23.18,36.16,33.65,4.36,1.91,15.2,15.81,18.53,11.77,4-3.15,8.07-6.26,12.09-9.4,30.35-26.66,58.25-56.48,80.63-90h0c40.78-58,64.78-126.43,77.24-196.56,1.39-8.49,2.95-17,4.33-25.45C1030.27,393.64,1033,387.33,1030.5,385.18Z" transform="translate(-642.24 -308.63)"/><path class="cls-2" d="M917.39,357.58c19.39,12.54,35.85,27.8,46,49,6.26,13.06,6.38,13.1-7,18.16-9.11,3.44-18.36,6.53-27.46,10-4,1.51-6,.7-8-3.42-20.42-43.11-78.91-54.66-113-22.24-11.74,11.16-18.63,24.8-18.34,41.59.27,16.49.73,33-.13,49.47-1.67,31.8,23.78,60.13,55,65.63,30.2,5.31,54.38-5.71,72.82-29.66,2.82-3.66,4.93-4.43,9.16-2.75,10.87,4.32,21.1,10.31,32.66,12.87-8,15.78-16.75,31-27.84,44.88a66.81,66.81,0,0,0-6.39,3.65c-50.32,36-118.27,28-156.91-18.6q-6-7.27-12.05-14.6a164.6,164.6,0,0,1-15.57-32.44,6.58,6.58,0,0,0,.35-1.82c-2.21-27.92-1.67-55.88-1.32-83.83a91.48,91.48,0,0,1,10.79-42c11.37-21.55,28.45-37.25,50.14-48.09L801,353l2-.87.27-.1,1.3-.51,1.84-.76,16.34-5.55,3.8-.88,2.93-.62,1.51-.38,2.27-.4,1.51-.23,4.49-.46,2.25-.27a140.74,140.74,0,0,1,71.17,13.11l.28.08,2,1.09Z" transform="translate(-642.24 -308.63)"/><path class="cls-3" d="M740.32,529.11c21.87,55.19,60.8,103.67,109.57,137.61,3.7,2.46,6.59,2.32,10.12-.21,86.61-64.11,131.77-170.44,138.85-276-2-7.8,27.68-6.22,32.91-6,6.32.08,2.19,8.55,2.13,12.37-1.41,8.51-3,17-4.42,25.5-12.72,70.27-37.2,138.85-78.8,196.94l.18.12-.17-.14c-22.84,33.59-51.3,63.48-82.27,90.2-4.11,3.14-8.23,6.26-12.33,9.41-3.4,4-14.46-9.88-18.91-11.79-13.13-10.49-25.08-21.9-36.91-33.74l0,0c-4-4.28-8.23-8.31-11.9-12.87l-.17.14.19-.12L785.26,657v0a400.81,400.81,0,0,1-28.41-35.8l-.26-.11c-.61-.67-.93-1.8-1.56-2.24-8.09-12.31-16.62-24.75-24-37.49-32.79-58.12-48.7-123.82-58.82-189.32-2.69-14.57,18.25-6,26.26-6.88,6.23.2,8.91,2.23,9.54,9.35C712.19,440.91,721.82,486.1,740.32,529.11Z" transform="translate(-642.24 -308.63)"/><path d="M853.42,341.63h2.4a382.7,382.7,0,0,1,173.36,43,2.85,2.85,0,0,1,1.07.55c2.53,2.15-.23,8.46-.29,11.61-1.38,8.49-2.94,17-4.33,25.45-12.46,70.13-36.46,138.59-77.24,196.56h0c-22.39,33.52-50.28,63.34-80.63,90-4,3.14-8.07,6.25-12.09,9.4a2,2,0,0,1-1.58.73c-4.37,0-13.14-10.83-17-12.5C824.27,696,812.56,684.58,801,672.78c-3.89-4.28-8.06-8.3-11.65-12.84h0l-3.06-3.61h0l0,0h0a397,397,0,0,1-27.84-35.72l-.26-.12c-.6-.66-.91-1.79-1.53-2.23-7.93-12.29-16.28-24.7-23.5-37.42-32.15-58-47.74-123.57-57.66-189-.66-3.61.12-5.79,1.77-7.05h0A6,6,0,0,1,679,384a382.7,382.7,0,0,1,174.45-42.32m176.83,43.55h0M853.42,308.63h0a416.56,416.56,0,0,0-188.24,45.3,39.67,39.67,0,0,0-6.86,3.86c-.77.54-1.5,1.1-2.22,1.7-10.81,8.89-15.72,22.83-13.22,37.69,5.83,38.33,12.82,71.39,21.36,101.08,10.63,36.93,23.72,69.17,40,98.58.06.1.11.2.17.29,6.26,11,13.1,21.53,19.72,31.69,1.59,2.45,3.19,4.9,4.76,7.34.29.44.58.88.89,1.3a36.07,36.07,0,0,0,3.1,4.27,439.65,439.65,0,0,0,28.32,36.1l2.67,3.13c3.21,4,6.46,7.43,9.34,10.46,1.2,1.27,2.34,2.46,3.37,3.59.27.3.55.6.84.89,10.83,11,23.93,24,38.88,36.13a33.55,33.55,0,0,0,3.18,2.28l1.69,1.55c6.92,6.4,17.39,16.07,32.91,16.07a34.9,34.9,0,0,0,23-8.63c2-1.56,4-3.1,6-4.65l4.91-3.81c.51-.4,1-.82,1.5-1.25,35-30.73,63.94-63.07,86.07-96.13,40.24-57.32,68-127.79,82.51-209.45,0-.15.05-.3.08-.45.65-4,1.35-8,2.08-12.2s1.52-8.78,2.25-13.27c.1-.59.18-1.19.24-1.78l0-.15a56.7,56.7,0,0,0,1.47-10.35,36.83,36.83,0,0,0-12.7-29.81,35.74,35.74,0,0,0-8.66-5.41A416.55,416.55,0,0,0,856,308.64Z" transform="translate(-642.24 -308.63)"/></svg>